<svg width="52.000000" height="52.000000" viewBox="0 0 52 52" fill="none" xmlns="http://www.w3.org/2000/svg" xmlns:xlink="http://www.w3.org/1999/xlink">
	<desc>
			Created with Pixso.
	</desc>
	<defs/>
	<rect id="добавить в избранное" rx="0.000000" width="51.000000" height="51.000000" transform="translate(0.500000 0.500000)" fill="#FFFFFF" fill-opacity="0"/>
	<path id="Vector" d="M24.98 48.65L7.93 30.9C3.13 25.9 3.43 17.7 8.59 13.09C13.7 8.53 21.46 9.41 25.5 15.03L26.18 15.97L26.86 15.03C30.91 9.41 38.66 8.53 43.78 13.09C48.93 17.7 49.24 25.9 44.43 30.9L27.38 48.65C26.72 49.34 25.65 49.34 24.98 48.65Z" fill="#111111" fill-opacity="0" fill-rule="nonzero"/>
	<path id="Vector" d="M7.93 30.9C3.13 25.9 3.43 17.7 8.59 13.09C13.7 8.53 21.46 9.41 25.5 15.03L26.18 15.97L26.86 15.03C30.91 9.41 38.66 8.53 43.78 13.09C48.93 17.7 49.24 25.9 44.43 30.9L27.38 48.65C26.72 49.34 25.65 49.34 24.98 48.65L7.93 30.9Z" stroke="#111111" stroke-opacity="1.000000" stroke-width="2.000000" stroke-linejoin="round"/>
</svg>
