<svg width="45.335938" height="41.010742" viewBox="0 0 45.3359 41.0107" fill="none" xmlns="http://www.w3.org/2000/svg" xmlns:xlink="http://www.w3.org/1999/xlink">
	<desc>
			Created with Pixso.
	</desc>
	<defs/>
	<path id="Vector" d="M21.46 39.49L4.41 21.73C-0.39 16.73 -0.09 8.53 5.07 3.93C10.18 -0.64 17.94 0.25 21.98 5.86L22.66 6.81L23.34 5.86C27.38 0.25 35.14 -0.64 40.26 3.93C45.41 8.53 45.72 16.73 40.91 21.73L23.86 39.49C23.2 40.18 22.12 40.18 21.46 39.49Z" fill="#111111" fill-opacity="1.000000" fill-rule="nonzero"/>
	<path id="Vector" d="M4.41 21.73C-0.39 16.73 -0.09 8.53 5.07 3.93C10.18 -0.64 17.94 0.25 21.98 5.86L22.66 6.81L23.34 5.86C27.38 0.25 35.14 -0.64 40.26 3.93C45.41 8.53 45.72 16.73 40.91 21.73L23.86 39.49C23.2 40.18 22.12 40.18 21.46 39.49L4.41 21.73Z" stroke="#111111" stroke-opacity="1.000000" stroke-width="2.000000" stroke-linejoin="round"/>
</svg>
