<svg width="38.000000" height="38.000000" viewBox="0 0 38 38" fill="none" xmlns="http://www.w3.org/2000/svg" xmlns:xlink="http://www.w3.org/1999/xlink">
	<desc>
			Created with Pixso.
	</desc>
	<defs/>
	<path id="Union" d="M19 0C19.5596 0 20 0.44043 20 1L20 18L37 18C37.5596 18 38 18.4404 38 19C38 19.5596 37.5596 20 37 20L20 20L20 37C20 37.5596 19.5596 38 19 38C18.4404 38 18 37.5596 18 37L18 20L1 20C0.44043 20 0 19.5596 0 19C0 18.4404 0.44043 18 1 18L18 18L18 1C18 0.44043 18.4404 0 19 0Z" clip-rule="evenodd" fill="#111111" fill-opacity="1.000000" fill-rule="evenodd"/>
</svg>
